#!OML:ASF F:\VICON\USERDATA\INSTALL\rory3\rory3.ASF
:FULLY-SPECIFIED
:DEGREES
993
root -5.00106 17.1588 1.5718 -501.259 -12.1904 -541.723
lowerback -16.0753 0.420792 0.605743
upperback -21.1822 -5.57304 -1.08598
thorax -15.3055 -5.52183 -1.02611
lowerneck -8.26244 3.32036 -0.606482
upperneck 18.6002 2.88022 5.63782
head 6.93624 1.51345 2.12291
rclavicle -5.76476e-015 -5.1684e-015
rhumerus 340.94 -37.2012 -349.15
rradius 17.3326
rwrist 17.5213
rhand 11.5661 -1.13395
rfingers 7.12502
rthumb 36.6101 -27.2982
lclavicle -5.76476e-015 -5.1684e-015
lhumerus 66.5188 -7.74045 27.4171
lradius 30.0872
lwrist -6.7944
lhand 6.0223 23.9513
lfingers 7.12502
lthumb 31.3446 51.2865
rfemur -57.2403 24.885 7.37013
rtibia 22.7473
rfoot -69.2463 -37.9054
rtoes 54.3324
lfemur -2.12263 21.3344 -19.3127
ltibia 2.22639e-014
lfoot -37.2811 44.1962
ltoes 48.5353
994
root -5.00223 17.1579 1.57291 -501.29 -12.0301 -542.079
lowerback -15.9578 0.361031 0.20811
upperback -21.0839 -5.5743 -1.19711
thorax -15.2207 -5.44862 -0.940102
lowerneck -8.41953 3.34155 -0.54351
upperneck 18.5862 2.9395 5.50297
head 6.96142 1.5433 2.07733
rclavicle 3.91606e-014 4.8901e-014
rhumerus 340.856 -37.8928 -348.959
rradius 17.2502
rwrist 18.3383
rhand 11.7395 -1.09171
rfingers 7.12502
rthumb 36.7743 -27.2142
lclavicle 3.91606e-014 4.8901e-014
lhumerus 66.5205 -7.60443 27.2687
lradius 30.141
lwrist -6.62421
lhand 6.09935 23.8434
lfingers 7.12502
lthumb 31.418 51.1644
rfemur -57.2434 24.835 6.95839
rtibia 22.9643
rfoot -69.3852 -37.7821
rtoes 54.3513
lfemur -2.04704 21.2554 -19.7338
ltibia -2.54444e-014
lfoot -37.0693 44.0711
ltoes 48.8675
995
root -4.99856 17.1598 1.5763 -501.234 -11.8904 -542.438
lowerback -15.9469 0.277451 -0.224552
upperback -20.9635 -5.60014 -1.29225
thorax -15.0416 -5.38206 -0.830345
lowerneck -8.622 3.36349 -0.465625
upperneck 18.5534 3.00276 5.36121
head 6.98905 1.57751 2.02821
rclavicle 3.47873e-015 1.51076e-014
rhumerus 341.06 -36.6023 -349.37
rradius 17.3221
rwrist 17.1982
rhand 11.8763 -1.5328
rfingers 7.12502
rthumb 36.9037 -27.6221
lclavicle 3.47873e-015 1.51076e-014
lhumerus 66.5676 -7.26996 27.6514
lradius 30.1071
lwrist -6.99413
lhand 6.24611 23.5436
lfingers 7.12502
lthumb 31.5578 50.8373
rfemur -57.3597 24.7763 6.50914
rtibia 23.1482
rfoot -69.4363 -37.8794
rtoes 54.1525
lfemur -2.10241 21.1649 -20.1667
ltibia -2.8625e-014
lfoot -36.3604 44.2653
ltoes 49.0813
996
root -4.9924 17.1586 1.57809 -501.125 -11.9 -542.543
lowerback -16.0125 0.207499 -0.409344
upperback -20.8391 -5.60503 -1.26185
thorax -14.8118 -5.32766 -0.722943
lowerneck -9.01217 3.41234 -0.469422
upperneck 18.5704 3.10959 5.27366
head 7.06208 1.63687 2.019
rclavicle -1.71949e-014 -2.5842e-014
rhumerus 341.277 -35.5833 -349.705
rradius 17.3875
rwrist 16.2917
rhand 12.1818 -1.54666
rfingers 7.12502
rthumb 37.1927 -27.5611
lclavicle -1.71949e-014 -2.5842e-014
lhumerus 66.5611 -6.89968 27.4782
lradius 30.2834
lwrist -6.87777
lhand 5.97197 23.601
lfingers 7.12502
lthumb 31.2966 50.9455
rfemur -57.549 24.7547 6.32584
rtibia 23.2371
rfoot -69.4902 -37.8754
rtoes 54.09
lfemur -2.25419 21.1183 -20.3022
ltibia 2.22639e-014
lfoot -36.0928 44.5302
ltoes 48.9713
997
root -4.98752 17.1571 1.5794 -500.987 -12.1783 -542.41
lowerback -16.1748 0.158376 -0.213271
upperback -20.677 -5.58057 -1.18055
thorax -14.4942 -5.30289 -0.781131
lowerneck -9.54828 3.52781 -0.33444
upperneck 18.5747 3.31267 5.09124
head 7.15927 1.74955 1.96819
rclavicle 3.65267e-014 7.95139e-015
rhumerus 341.172 -37.6512 -349.304
rradius 17.1507
rwrist 18.5063
rhand 12.5602 -1.18956
rfingers 7.12502
rthumb 37.5504 -27.1097
lclavicle 3.65267e-014 7.95139e-015
lhumerus 66.6425 -6.42947 27.5747
lradius 30.3189
lwrist -7.1449
lhand 5.55333 23.8105
lfingers 7.12502
lthumb 30.8976 51.2315
rfemur -57.69 24.664 6.47435
rtibia 23.1575
rfoot -69.6221 -37.7163
rtoes 54.2002
lfemur -2.46541 21.0124 -20.0704
ltibia 3.18055e-014
lfoot -35.8884 44.5499
ltoes 48.8571
998
root -4.98786 17.1597 1.58298 -500.885 -12.5246 -542.325
lowerback -16.2864 0.105813 0.0939381
upperback -20.5359 -5.58906 -1.15043
thorax -14.2548 -5.31937 -0.949273
lowerneck -9.75524 3.69807 -0.0121184
upperneck 18.325 3.59119 4.80638
head 7.12071 1.89792 1.84852
rclavicle 2.5842e-014 3.57812e-014
rhumerus 341.207 -39.1462 -349.244
rradius 17.0125
rwrist 20.3335
rhand 12.8698 -1.42368
rfingers 7.12502
rthumb 37.8429 -27.2655
lclavicle 2.5842e-014 3.57812e-014
lhumerus 66.6068 -6.0452 27.442
lradius 30.3975
lwrist -7.29001
lhand 5.2623 23.7309
lfingers 7.12502
lthumb 30.6201 51.2041
rfemur -57.6509 24.4925 6.67576
rtibia 22.9706
rfoot -69.8688 -37.4063
rtoes 54.4432
lfemur -2.633 20.8233 -19.8358
ltibia -3.18055e-015
lfoot -35.4561 44.813
ltoes 48.7113
999
root -4.99268 17.17 1.58915 -500.769 -12.8933 -542.347
lowerback -16.087 0.154986 0.417065
upperback -20.6779 -5.60645 -1.2411
thorax -14.6045 -5.40271 -1.18681
lowerneck -9.1539 3.89225 0.46135
upperneck 17.9378 3.88174 4.40368
head 6.90237 2.02985 1.64493
rclavicle -3.45885e-014 9.14409e-015
rhumerus 341.509 -36.4562 -349.896
rradius 17.2433
rwrist 18.8423
rhand 13.1058 -1.85062
rfingers 7.12502
rthumb 38.0658 -27.6319
lclavicle -3.45885e-014 9.14409e-015
lhumerus 66.3513 -6.24182 26.9644
lradius 30.5095
lwrist -6.89028
lhand 4.73443 23.6819
lfingers 7.12502
lthumb 30.1166 51.248
rfemur -57.5306 24.2092 6.81374
rtibia 22.7295
rfoot -69.9981 -37.0362
rtoes 54.6602
lfemur -2.8443 20.5472 -19.7286
ltibia 2.22639e-014
lfoot -34.7682 45.3225
ltoes 48.516
1000
root -4.99839 17.1766 1.59442 -500.693 -13.2481 -542.299
lowerback -15.853 0.225999 0.811646
upperback -20.7867 -5.57602 -1.32759
thorax -14.9332 -5.46533 -1.45979
lowerneck -8.83531 4.15387 0.983266
upperneck 17.7758 4.25342 3.95996
head 6.8109 2.20445 1.43801
rclavicle -5.83433e-014 -2.94201e-014
rhumerus 341.637 -34.0952 -350.363
rradius 17.4561
rwrist 17.6969
rhand 13.5458 -1.62346
rfingers 7.12502
rthumb 38.4811 -27.2901
lclavicle -5.83433e-014 -2.94201e-014
lhumerus 66.1408 -6.32924 26.7641
lradius 30.6216
lwrist -6.68294
lhand 4.27467 23.5927
lfingers 7.12502
lthumb 29.6779 51.2378
rfemur -57.4306 23.9787 7.00515
rtibia 22.5178
rfoot -70.0176 -37.0376
rtoes 54.6878
lfemur -3.00537 20.3258 -19.547
ltibia -2.22639e-014
lfoot -33.8879 45.8681
ltoes 48.4166
1001
root -5.00437 17.1789 1.59766 -500.759 -13.6252 -542.089
lowerback -15.8929 0.230518 1.31307
upperback -20.5835 -5.47798 -1.29597
thorax -14.6576 -5.43737 -1.73369
lowerneck -9.33314 4.42567 1.28153
upperneck 17.9158 4.64051 3.66542
head 6.95376 2.39992 1.34373
rclavicle -3.33958e-014 -2.50469e-014
rhumerus 341.712 -34.1029 -350.534
rradius 17.4387
rwrist 17.9576
rhand 13.604 -1.68767
rfingers 7.12502
rthumb 38.5361 -27.339
lclavicle -3.33958e-014 -2.50469e-014
lhumerus 66.1759 -5.86871 26.9595
lradius 30.6186
lwrist -6.88626
lhand 3.98111 23.3751
lfingers 7.12502
lthumb 29.3977 51.0698
rfemur -57.2353 23.8707 7.37881
rtibia 22.3091
rfoot -69.9592 -37.2708
rtoes 54.5421
lfemur -3.67329 20.2156 -19.4153
ltibia 1.05006
lfoot -31.9189 46.256
ltoes 48.2374
1002
root -5.00136 17.1819 1.601 -500.719 -13.6673 -542.079
lowerback -15.8989 0.277363 1.30595
upperback -20.5308 -5.37402 -1.30128
thorax -14.5722 -5.3697 -1.7434
lowerneck -9.37576 4.70776 1.47483
upperneck 17.8575 5.05904 3.41555
head 6.94967 2.59932 1.26897
rclavicle 1.03368e-014 2.70347e-014
rhumerus 341.801 -32.3937 -350.914
rradius 17.7297
rwrist 16.5853
rhand 13.3971 -2.15774
rfingers 7.12502
rthumb 38.3408 -27.8634
lclavicle 1.03368e-014 2.70347e-014
lhumerus 66.0939 -5.69004 27.2274
lradius 30.5004
lwrist -7.00063
lhand 3.12531 23.1632
lfingers 7.12502
lthumb 28.5803 50.9984
rfemur -57.1882 23.8902 7.33148
rtibia 22.0809
rfoot -69.8276 -37.4658
rtoes 54.5766
lfemur -4.94777 20.2552 -19.8989
ltibia 2.97685
lfoot -30.7368 45.6842
ltoes 48.2432
